<svg data-v-fde0c5aa="" xmlns="http://www.w3.org/2000/svg" viewBox="0 0 300 300" class="iconLeft"><!----><defs data-v-fde0c5aa=""><!----></defs><rect data-v-fde0c5aa="" fill="#11CE3E" x="0" y="0" width="300px" height="300px" class="logo-background-square"></rect><defs data-v-fde0c5aa=""><!----></defs><g data-v-fde0c5aa="" id="da15e9eb-0881-4ce4-a70c-b359dfff20ff" fill="#FFFFFF" transform="matrix(1.7032177448272705,0,0,1.7032177448272705,108.10705113960003,137.2003195552498)"><path d="M2.59 10.50L2.59 10.50Q2.27 10.50 1.83 10.26L1.83 10.26L1.83 10.26Q1.39 10.02 1.06 9.70L1.06 9.70L1.06 9.70Q0.73 9.38 0.73 9.17L0.73 9.17L0.73 9.17Q0.73 8.81 1.41 5.46L1.41 5.46L1.41 5.46Q1.50 5.07 1.69 4.12L1.69 4.12L1.69 4.12Q1.88 3.18 1.95 2.76L1.95 2.76L1.43 2.84L1.43 2.84Q0.99 2.44 0.99 1.82L0.99 1.82L0.99 1.82Q0.99 1.39 1.23 0.92L1.23 0.92L1.23 0.92Q2.37 0.63 3.53 0.63L3.53 0.63L3.53 0.63Q4.76 0.63 5.82 0.95L5.82 0.95L5.82 0.95Q6.87 1.27 7.53 1.94L7.53 1.94L7.53 1.94Q8.19 2.60 8.19 3.60L8.19 3.60L8.19 3.60Q8.19 4.48 7.61 5.27L7.61 5.27L7.61 5.27Q7.03 6.06 5.92 6.58L5.92 6.58L5.92 6.58Q4.82 7.10 3.32 7.21L3.32 7.21L3.32 7.21Q3.22 7.88 3.16 8.43L3.16 8.43L3.16 8.43Q3.04 9.49 2.93 10.00L2.93 10.00L2.93 10.00Q2.81 10.50 2.59 10.50L2.59 10.50ZM3.53 5.47L3.53 5.47Q4.75 5.24 5.41 4.74L5.41 4.74L5.41 4.74Q6.08 4.24 6.08 3.63L6.08 3.63L6.08 3.63Q6.08 3.21 5.66 2.92L5.66 2.92L5.66 2.92Q5.25 2.63 4.55 2.63L4.55 2.63L4.55 2.63Q4.30 2.63 4.00 2.67L4.00 2.67L3.78 3.99L3.78 3.99Q3.58 5.10 3.53 5.47L3.53 5.47ZM10.36 10.50L10.36 10.50Q9.95 10.50 9.46 10.26L9.46 10.26L9.46 10.26Q8.96 10.01 8.61 9.68L8.61 9.68L8.61 9.68Q8.26 9.35 8.26 9.11L8.26 9.11L8.26 9.11Q8.26 8.88 8.46 7.94L8.46 7.94L8.46 7.94Q8.65 7 8.71 6.73L8.71 6.73L8.71 6.73Q9.13 4.80 9.27 4.06L9.27 4.06L9.41 3.28L9.41 3.28Q9.70 1.65 9.95 0.66L9.95 0.66L9.95 0.66Q10.19-0.34 10.44-0.34L10.44-0.34L10.44-0.34Q10.74-0.34 11.22-0.08L11.22-0.08L11.22-0.08Q11.70 0.17 12.07 0.50L12.07 0.50L12.07 0.50Q12.43 0.84 12.43 1.09L12.43 1.09L12.43 1.09Q12.43 1.43 12.31 1.74L12.31 1.74L12.31 1.74Q12.19 2.06 11.96 2.56L11.96 2.56L11.96 2.56Q11.73 3.00 11.65 3.23L11.65 3.23L11.65 3.23Q11.38 4.06 11.08 5.53L11.08 5.53L11.08 5.53Q10.78 7 10.58 8.37L10.58 8.37L10.58 8.37Q11.03 8.15 11.28 7.99L11.28 7.99L11.28 7.99Q11.54 7.83 11.87 7.55L11.87 7.55L11.87 7.55Q12.49 7.76 12.79 8.13L12.79 8.13L12.79 8.13Q13.09 8.50 13.09 8.97L13.09 8.97L13.09 8.97Q13.09 9.31 12.61 9.67L12.61 9.67L12.61 9.67Q12.14 10.02 11.48 10.26L11.48 10.26L11.48 10.26Q10.82 10.50 10.36 10.50L10.36 10.50ZM15.76 10.50L15.76 10.50Q15.40 10.50 14.97 10.23L14.97 10.23L14.97 10.23Q14.55 9.95 14.25 9.60L14.25 9.60L14.25 9.60Q13.96 9.24 13.96 9.02L13.96 9.02L13.96 9.02Q13.96 8.79 14.09 8.37L14.09 8.37L14.09 8.37Q14.22 7.95 14.37 7.53L14.37 7.53L14.37 7.53Q14.52 7.11 14.56 7L14.56 7L14.56 7Q14.74 6.51 14.89 6.08L14.89 6.08L14.89 6.08Q15.04 5.64 15.04 5.49L15.04 5.49L15.04 5.49Q15.04 5.38 14.90 5.24L14.90 5.24L14.90 5.24Q14.77 5.11 14.50 4.91L14.50 4.91L14.50 4.91Q14.20 4.68 14.05 4.54L14.05 4.54L14.05 4.54Q13.90 4.40 13.90 4.24L13.90 4.24L13.90 4.24Q13.90 3.95 14.18 3.56L14.18 3.56L14.18 3.56Q14.45 3.16 14.82 2.88L14.82 2.88L14.82 2.88Q15.19 2.60 15.46 2.60L15.46 2.60L15.46 2.60Q15.75 2.60 16.14 2.87L16.14 2.87L16.14 2.87Q16.52 3.14 16.81 3.48L16.81 3.48L16.81 3.48Q17.09 3.82 17.09 4.00L17.09 4.00L17.09 4.00Q17.09 4.87 16.80 6.09L16.80 6.09L16.80 6.09Q16.51 7.31 16.04 8.51L16.04 8.51L16.04 8.51Q16.97 7.74 17.70 6.80L17.70 6.80L17.70 6.80Q18.42 5.87 18.72 5.12L18.72 5.12L18.72 5.12Q18.75 4.21 18.94 3.60L18.94 3.60L18.94 3.60Q19.12 2.98 19.38 2.98L19.38 2.98L19.38 2.98Q19.74 2.98 20.18 3.24L20.18 3.24L20.18 3.24Q20.62 3.50 20.93 3.84L20.93 3.84L20.93 3.84Q21.24 4.19 21.24 4.38L21.24 4.38L21.24 4.38Q21.22 4.68 20.97 5.48L20.97 5.48L20.97 5.48Q20.72 6.29 20.27 7.55L20.27 7.55L20.27 7.55Q20.01 8.33 19.96 8.44L19.96 8.44L19.96 8.44Q20.37 8.26 20.70 8.06L20.70 8.06L20.70 8.06Q21.03 7.85 21.39 7.55L21.39 7.55L21.39 7.55Q22.01 7.76 22.31 8.13L22.31 8.13L22.31 8.13Q22.61 8.50 22.61 8.97L22.61 8.97L22.61 8.97Q22.61 9.31 22.13 9.67L22.13 9.67L22.13 9.67Q21.66 10.02 21 10.26L21 10.26L21 10.26Q20.34 10.50 19.88 10.50L19.88 10.50L19.88 10.50Q19.59 10.50 19.18 10.26L19.18 10.26L19.18 10.26Q18.77 10.01 18.46 9.70L18.46 9.70L18.46 9.70Q18.14 9.38 18.14 9.23L18.14 9.23L18.14 9.23Q18.14 9.07 18.25 8.85L18.25 8.85L18.25 8.85Q18.35 8.62 18.49 8.37L18.49 8.37L18.49 8.37Q18.62 8.11 18.69 7.99L18.69 7.99L18.34 7.80L18.34 7.80Q17.57 9.21 17.02 9.86L17.02 9.86L17.02 9.86Q16.46 10.50 15.76 10.50L15.76 10.50ZM25.55 10.50L25.55 10.50Q25.17 10.50 24.72 10.26L24.72 10.26L24.72 10.26Q24.28 10.01 23.95 9.68L23.95 9.68L23.95 9.68Q23.63 9.35 23.63 9.13L23.63 9.13L23.63 9.13Q23.63 8.86 23.74 8.44L23.74 8.44L23.74 8.44Q23.86 8.01 24.08 7.32L24.08 7.32L24.08 7.32Q24.30 6.61 24.42 6.18L24.42 6.18L24.42 6.18Q24.53 5.75 24.53 5.49L24.53 5.49L24.53 5.49Q24.53 5.38 24.40 5.25L24.40 5.25L24.40 5.25Q24.28 5.12 24.01 4.91L24.01 4.91L24.01 4.91Q23.70 4.66 23.56 4.52L23.56 4.52L23.56 4.52Q23.42 4.38 23.42 4.24L23.42 4.24L23.42 4.24Q23.42 3.95 23.70 3.56L23.70 3.56L23.70 3.56Q23.98 3.16 24.36 2.88L24.36 2.88L24.36 2.88Q24.74 2.60 25.00 2.60L25.00 2.60L25.00 2.60Q25.30 2.60 25.68 2.87L25.68 2.87L25.68 2.87Q26.05 3.14 26.33 3.48L26.33 3.48L26.33 3.48Q26.61 3.82 26.61 4.00L26.61 4.00L26.61 4.00Q26.61 4.54 26.40 5.40L26.40 5.40L26.57 5.49L26.57 5.49Q26.89 4.97 27.28 4.25L27.28 4.25L27.28 4.25Q27.66 3.53 27.75 3.36L27.75 3.36L28.01 2.86L28.01 2.86Q28.98 2.83 29.46 3.21L29.46 3.21L29.46 3.21Q29.93 3.58 29.93 4.21L29.93 4.21L29.93 4.21Q29.93 4.83 29.53 5.45L29.53 5.45L29.53 5.45Q28.52 5.78 27.81 6.11L27.81 6.11L27.81 6.11Q27.10 6.44 26.39 6.89L26.39 6.89L26.39 6.89Q26.35 8.44 26.14 9.47L26.14 9.47L26.14 9.47Q25.94 10.50 25.55 10.50L25.55 10.50ZM36.57 8.44L36.57 8.44Q37.42 8.02 38.01 7.55L38.01 7.55L38.01 7.55Q38.63 7.76 38.93 8.13L38.93 8.13L38.93 8.13Q39.23 8.50 39.23 8.97L39.23 8.97L39.23 8.97Q39.23 9.31 38.75 9.67L38.75 9.67L38.75 9.67Q38.28 10.02 37.62 10.26L37.62 10.26L37.62 10.26Q36.96 10.50 36.50 10.50L36.50 10.50L36.50 10.50Q36.18 10.50 35.76 10.26L35.76 10.26L35.76 10.26Q35.35 10.02 35.05 9.70L35.05 9.70L35.05 9.70Q34.75 9.38 34.75 9.20L34.75 9.20L34.75 9.20Q34.75 9.06 34.87 8.82L34.87 8.82L34.87 8.82Q34.99 8.58 35.13 8.33L35.13 8.33L35.13 8.33Q35.27 8.08 35.31 7.99L35.31 7.99L34.96 7.80L34.96 7.80Q34.22 9.02 33.54 9.76L33.54 9.76L33.54 9.76Q32.86 10.50 32.20 10.50L32.20 10.50L32.20 10.50Q31.75 10.50 31.25 10.11L31.25 10.11L31.25 10.11Q30.76 9.72 30.41 9.16L30.41 9.16L30.41 9.16Q30.07 8.60 30.07 8.16L30.07 8.16L30.07 8.16Q30.07 6.92 30.59 5.61L30.59 5.61L30.59 5.61Q31.11 4.31 32.04 3.46L32.04 3.46L32.04 3.46Q32.97 2.60 34.15 2.60L34.15 2.60L34.15 2.60Q34.57 2.60 35 2.98L35 2.98L35 2.98Q35.43 3.36 35.56 3.75L35.56 3.75L35.56 3.75Q35.63 3.44 35.76 3.21L35.76 3.21L35.76 3.21Q35.90 2.98 36.05 2.98L36.05 2.98L36.05 2.98Q36.41 2.98 36.85 3.24L36.85 3.24L36.85 3.24Q37.30 3.50 37.60 3.84L37.60 3.84L37.60 3.84Q37.91 4.19 37.91 4.38L37.91 4.38L37.91 4.38Q37.90 4.65 37.70 5.26L37.70 5.26L37.70 5.26Q37.49 5.88 37.04 7.14L37.04 7.14L37.04 7.14Q36.78 7.83 36.57 8.44L36.57 8.44ZM32.27 8.55L32.27 8.55Q33.40 7.85 34.24 6.82L34.24 6.82L34.24 6.82Q35.08 5.80 35.39 4.55L35.39 4.55L35.39 4.55Q35.01 4.38 34.68 4.38L34.68 4.38L34.68 4.38Q34.02 4.38 33.50 4.97L33.50 4.97L33.50 4.97Q32.98 5.56 32.68 6.51L32.68 6.51L32.68 6.51Q32.37 7.46 32.27 8.55L32.27 8.55ZM41.89 10.50L41.89 10.50Q41.48 10.50 40.98 10.26L40.98 10.26L40.98 10.26Q40.49 10.01 40.14 9.68L40.14 9.68L40.14 9.68Q39.79 9.35 39.79 9.11L39.79 9.11L39.79 9.11Q39.79 8.88 39.98 7.94L39.98 7.94L39.98 7.94Q40.18 7 40.24 6.73L40.24 6.73L40.24 6.73Q40.66 4.80 40.80 4.06L40.80 4.06L40.94 3.28L40.94 3.28Q41.23 1.65 41.48 0.66L41.48 0.66L41.48 0.66Q41.72-0.34 41.97-0.34L41.97-0.34L41.97-0.34Q42.27-0.34 42.75-0.08L42.75-0.08L42.75-0.08Q43.23 0.17 43.60 0.50L43.60 0.50L43.60 0.50Q43.96 0.84 43.96 1.09L43.96 1.09L43.96 1.09Q43.96 1.43 43.84 1.74L43.84 1.74L43.84 1.74Q43.72 2.06 43.48 2.56L43.48 2.56L43.48 2.56Q43.26 3.00 43.18 3.23L43.18 3.23L43.18 3.23Q42.91 4.06 42.61 5.53L42.61 5.53L42.61 5.53Q42.31 7 42.11 8.37L42.11 8.37L42.11 8.37Q42.56 8.15 42.81 7.99L42.81 7.99L42.81 7.99Q43.06 7.83 43.40 7.55L43.40 7.55L43.40 7.55Q44.02 7.76 44.32 8.13L44.32 8.13L44.32 8.13Q44.62 8.50 44.62 8.97L44.62 8.97L44.62 8.97Q44.62 9.31 44.14 9.67L44.14 9.67L44.14 9.67Q43.67 10.02 43.01 10.26L43.01 10.26L43.01 10.26Q42.35 10.50 41.89 10.50L41.89 10.50ZM48.16 2.20L48.16 2.20Q47.89 2.20 47.52 1.98L47.52 1.98L47.52 1.98Q47.15 1.76 46.89 1.46L46.89 1.46L46.89 1.46Q46.62 1.16 46.62 0.92L46.62 0.92L46.62 0.92Q46.62 0.55 46.82 0.17L46.82 0.17L46.82 0.17Q47.01-0.21 47.31-0.38L47.31-0.38L47.31-0.38Q47.45-0.45 47.75-0.45L47.75-0.45L47.75-0.45Q48.26-0.45 48.77-0.22L48.77-0.22L48.77-0.22Q49.28 0 49.39 0.34L49.39 0.34L49.39 0.34Q49.42 0.41 49.42 0.55L49.42 0.55L49.42 0.55Q49.42 0.87 49.22 1.26L49.22 1.26L49.22 1.26Q49.03 1.65 48.73 1.92L48.73 1.92L48.73 1.92Q48.44 2.20 48.16 2.20L48.16 2.20ZM47.21 10.50L47.21 10.50Q46.84 10.50 46.39 10.26L46.39 10.26L46.39 10.26Q45.93 10.01 45.61 9.68L45.61 9.68L45.61 9.68Q45.28 9.35 45.28 9.13L45.28 9.13L45.28 9.13Q45.28 8.88 45.46 8.39L45.46 8.39L45.46 8.39Q45.64 7.90 46.00 7.04L46.00 7.04L46.00 7.04Q46.28 6.38 46.42 6.01L46.42 6.01L46.42 6.01Q46.56 5.64 46.56 5.49L46.56 5.49L46.56 5.49Q46.56 5.38 46.43 5.24L46.43 5.24L46.43 5.24Q46.30 5.11 46.03 4.91L46.03 4.91L46.03 4.91Q45.72 4.68 45.58 4.54L45.58 4.54L45.58 4.54Q45.43 4.40 45.43 4.24L45.43 4.24L45.43 4.24Q45.43 3.95 45.70 3.56L45.70 3.56L45.70 3.56Q45.98 3.16 46.35 2.88L46.35 2.88L46.35 2.88Q46.72 2.60 46.98 2.60L46.98 2.60L46.98 2.60Q47.31 2.60 47.69 2.88L47.69 2.88L47.69 2.88Q48.08 3.16 48.35 3.55L48.35 3.55L48.35 3.55Q48.62 3.93 48.62 4.17L48.62 4.17L48.62 4.17Q48.62 4.79 48.31 5.93L48.31 5.93L48.31 5.93Q47.99 7.07 47.50 8.39L47.50 8.39L47.50 8.39Q47.84 8.23 48.09 8.06L48.09 8.06L48.09 8.06Q48.34 7.90 48.79 7.55L48.79 7.55L48.79 7.55Q49.42 7.76 49.71 8.14L49.71 8.14L49.71 8.14Q50.01 8.53 50.01 8.97L50.01 8.97L50.01 8.97Q50.01 9.34 49.54 9.69L49.54 9.69L49.54 9.69Q49.07 10.04 48.40 10.27L48.40 10.27L48.40 10.27Q47.73 10.50 47.21 10.50L47.21 10.50ZM55.83 4.91L53.75 5.00L53.75 5.00Q53.28 7.11 53.14 8.44L53.14 8.44L53.14 8.44Q54.04 8.01 54.59 7.55L54.59 7.55L54.59 7.55Q55.20 7.76 55.50 8.13L55.50 8.13L55.50 8.13Q55.80 8.50 55.80 8.97L55.80 8.97L55.80 8.97Q55.80 9.31 55.33 9.67L55.33 9.67L55.33 9.67Q54.85 10.02 54.19 10.26L54.19 10.26L54.19 10.26Q53.54 10.50 53.07 10.50L53.07 10.50L53.07 10.50Q52.67 10.50 52.17 10.26L52.17 10.26L52.17 10.26Q51.67 10.01 51.32 9.68L51.32 9.68L51.32 9.68Q50.97 9.35 50.97 9.11L50.97 9.11L50.97 9.11Q50.97 8.92 51.12 8.27L51.12 8.27L51.12 8.27Q51.27 7.62 51.39 7.15L51.39 7.15L51.39 7.15Q51.51 6.68 51.56 6.45L51.56 6.45L51.90 5.11L51.04 5.17L51.04 5.17Q50.81 5.05 50.68 4.82L50.68 4.82L50.68 4.82Q50.55 4.58 50.55 4.27L50.55 4.27L50.55 4.27Q50.55 3.71 50.96 3.32L50.96 3.32L50.96 3.32Q51.46 3.35 52.19 3.37L52.19 3.37L52.19 3.37Q52.19 2.48 52.39 1.39L52.39 1.39L52.39 1.39Q52.58 0.31 52.82 0.31L52.82 0.31L52.82 0.31Q53.12 0.31 53.56 0.56L53.56 0.56L53.56 0.56Q54.01 0.81 54.35 1.15L54.35 1.15L54.35 1.15Q54.68 1.48 54.68 1.74L54.68 1.74L54.68 1.74Q54.68 2.06 54.57 2.39L54.57 2.39L54.57 2.39Q54.45 2.72 54.18 3.29L54.18 3.29L54.18 3.29Q54.42 3.26 55.38 3.09L55.38 3.09L55.71 3.04L55.71 3.04Q55.96 3.18 56.09 3.44L56.09 3.44L56.09 3.44Q56.22 3.71 56.22 4.02L56.22 4.02L56.22 4.02Q56.22 4.27 56.13 4.51L56.13 4.51L56.13 4.51Q56.03 4.75 55.83 4.91L55.83 4.91ZM61.80 8.26L61.80 8.26Q60.93 8.96 59.99 9.51L59.99 9.51L59.99 9.51Q59.05 10.05 58.55 10.05L58.55 10.05L58.55 10.05Q58.34 10.05 58.00 9.82L58.00 9.82L58.00 9.82Q57.65 9.59 57.39 9.27L57.39 9.27L57.39 9.27Q57.13 8.95 57.13 8.68L57.13 8.68L57.13 8.68Q57.13 8.43 57.25 8.02L57.25 8.02L57.25 8.02Q57.37 7.62 57.64 6.85L57.64 6.85L57.64 6.85Q58.03 5.75 58.03 5.49L58.03 5.49L58.03 5.49Q58.03 5.38 57.90 5.24L57.90 5.24L57.90 5.24Q57.76 5.11 57.50 4.91L57.50 4.91L57.50 4.91Q57.19 4.68 57.04 4.54L57.04 4.54L57.04 4.54Q56.90 4.40 56.90 4.24L56.90 4.24L56.90 4.24Q56.90 3.95 57.17 3.56L57.17 3.56L57.17 3.56Q57.44 3.16 57.81 2.88L57.81 2.88L57.81 2.88Q58.18 2.60 58.45 2.60L58.45 2.60L58.45 2.60Q58.74 2.60 59.13 2.87L59.13 2.87L59.13 2.87Q59.51 3.14 59.80 3.48L59.80 3.48L59.80 3.48Q60.09 3.82 60.09 4.00L60.09 4.00L60.09 4.00Q60.09 4.79 59.87 5.87L59.87 5.87L59.87 5.87Q59.65 6.96 59.25 8.09L59.25 8.09L59.25 8.09Q60.38 7.50 61.52 6.58L61.52 6.58L61.52 6.58Q61.70 4.79 61.87 3.88L61.87 3.88L61.87 3.88Q62.03 2.98 62.34 2.98L62.34 2.98L62.34 2.98Q62.55 2.98 62.98 3.27L62.98 3.27L62.98 3.27Q63.41 3.56 63.75 3.91L63.75 3.91L63.75 3.91Q64.09 4.27 64.09 4.47L64.09 4.47L64.09 4.47Q64.09 4.76 63.66 7.13L63.66 7.13L63.66 7.13Q63.22 9.51 62.75 11.70L62.75 11.70L62.75 11.70Q62.27 13.89 62.06 14.22L62.06 14.22L62.06 14.22Q61.75 14.73 61.05 15.11L61.05 15.11L61.05 15.11Q60.35 15.48 59.70 15.48L59.70 15.48L59.70 15.48Q59.14 15.48 58.50 15.11L58.50 15.11L58.50 15.11Q57.86 14.73 57.44 14.18L57.44 14.18L57.44 14.18Q57.01 13.62 57.01 13.16L57.01 13.16L57.01 13.16Q57.01 12.54 58.41 11.36L58.41 11.36L58.41 11.36Q59.81 10.18 62.05 8.64L62.05 8.64L61.80 8.26ZM61.57 10.54L61.57 10.54Q59.11 12.47 59.11 13.23L59.11 13.23L59.11 13.23Q59.11 13.50 59.39 13.72L59.39 13.72L59.39 13.72Q59.67 13.94 60.09 14.01L60.09 14.01L60.09 14.01Q60.55 13.36 60.87 12.59L60.87 12.59L60.87 12.59Q61.18 11.83 61.57 10.54L61.57 10.54ZM71.32 0.70L71.32 0.70Q71.58 0.70 72.04 0.94L72.04 0.94L72.04 0.94Q72.49 1.18 72.84 1.50L72.84 1.50L72.84 1.50Q73.18 1.82 73.18 2.06L73.18 2.06L73.18 2.06Q73.18 2.18 72.91 3.18L72.91 3.18L72.91 3.18Q72.42 4.94 72.18 6.26L72.18 6.26L72.18 6.26Q72.04 7.08 71.89 8.43L71.89 8.43L71.89 8.43Q71.75 9.58 71.65 10.04L71.65 10.04L71.65 10.04Q71.54 10.50 71.32 10.50L71.32 10.50L71.32 10.50Q70.91 10.50 70.37 10.16L70.37 10.16L70.37 10.16Q69.83 9.81 69.44 9.31L69.44 9.31L69.44 9.31Q69.23 9.03 68.85 8.22L68.85 8.22L68.85 8.22Q68.47 7.41 68.12 6.39L68.12 6.39L68.12 6.39Q67.76 5.38 67.58 4.49L67.58 4.49L67.48 6.26L67.48 6.26Q67.34 7.08 67.19 8.43L67.19 8.43L67.19 8.43Q67.05 9.58 66.94 10.04L66.94 10.04L66.94 10.04Q66.84 10.50 66.61 10.50L66.61 10.50L66.61 10.50Q66.29 10.50 65.85 10.27L65.85 10.27L65.85 10.27Q65.41 10.04 65.08 9.72L65.08 9.72L65.08 9.72Q64.75 9.39 64.75 9.18L64.75 9.18L64.75 9.18Q64.74 8.96 64.88 8.24L64.88 8.24L64.88 8.24Q65.03 7.52 65.07 7.31L65.07 7.31L65.07 7.31Q65.13 7.03 65.28 6.28L65.28 6.28L65.28 6.28Q65.44 5.53 65.53 4.89L65.53 4.89L65.65 4.23L65.65 4.23Q65.91 2.66 66.14 1.68L66.14 1.68L66.14 1.68Q66.37 0.70 66.61 0.70L66.61 0.70L66.61 0.70Q66.85 0.70 67.26 0.90L67.26 0.90L67.26 0.90Q67.68 1.11 68.02 1.40L68.02 1.40L68.02 1.40Q68.36 1.69 68.46 1.96L68.46 1.96L68.46 1.96Q69.12 3.72 70.07 6.72L70.07 6.72L70.24 4.89L70.35 4.23L70.35 4.23Q70.62 2.66 70.85 1.68L70.85 1.68L70.85 1.68Q71.08 0.70 71.32 0.70L71.32 0.70ZM80.35 0.70L80.35 0.70Q80.61 0.85 80.75 1.13L80.75 1.13L80.75 1.13Q80.88 1.40 80.88 1.72L80.88 1.72L80.88 1.72Q80.88 2.00 80.77 2.28L80.77 2.28L80.77 2.28Q80.65 2.56 80.47 2.74L80.47 2.74L80.47 2.74Q78.67 2.77 77.46 2.88L77.46 2.88L77.46 2.88Q77.22 3.74 77.01 4.79L77.01 4.79L77.01 4.79Q78.41 4.68 79.38 4.45L79.38 4.45L79.38 4.45Q79.66 4.62 79.81 4.89L79.81 4.89L79.81 4.89Q79.95 5.17 79.95 5.49L79.95 5.49L79.95 5.49Q79.95 5.78 79.84 6.04L79.84 6.04L79.84 6.04Q79.72 6.30 79.51 6.45L79.51 6.45L79.51 6.45Q79.24 6.48 78.99 6.50L78.99 6.50L78.99 6.50Q78.74 6.51 78.50 6.52L78.50 6.52L76.69 6.65L76.44 7.91L76.30 8.58L76.30 8.58Q77.15 8.50 77.85 8.35L77.85 8.35L77.85 8.35Q78.54 8.20 79.31 7.94L79.31 7.94L79.31 7.94Q79.70 8.12 79.92 8.45L79.92 8.45L79.92 8.45Q80.14 8.78 80.14 9.17L80.14 9.17L80.14 9.17Q80.14 9.73 79.70 10.16L79.70 10.16L79.70 10.16Q78.83 10.33 77.76 10.42L77.76 10.42L77.76 10.42Q76.68 10.50 75.75 10.50L75.75 10.50L75.75 10.50Q75.50 10.50 75.10 10.25L75.10 10.25L75.10 10.25Q74.69 10.00 74.38 9.66L74.38 9.66L74.38 9.66Q74.06 9.32 74.06 9.09L74.06 9.09L74.06 9.09Q74.06 8.88 74.38 7.46L74.38 7.46L74.38 7.46Q74.62 6.43 74.84 5.31L74.84 5.31L74.84 5.31Q75.00 4.54 75.00 4.54L75.00 4.54L75.00 4.54Q75.22 3.44 75.29 2.95L75.29 2.95L74.70 3.00L74.70 3.00Q74.44 2.86 74.28 2.58L74.28 2.58L74.28 2.58Q74.12 2.31 74.12 1.99L74.12 1.99L74.12 1.99Q74.12 1.43 74.55 0.99L74.55 0.99L74.55 0.99Q76.47 0.97 77.89 0.91L77.89 0.91L77.89 0.91Q79.31 0.85 80.35 0.70L80.35 0.70ZM88.65 0.70L88.65 0.70Q88.91 0.85 89.05 1.13L89.05 1.13L89.05 1.13Q89.18 1.40 89.18 1.72L89.18 1.72L89.18 1.72Q89.18 2.00 89.07 2.28L89.07 2.28L89.07 2.28Q88.96 2.56 88.77 2.74L88.77 2.74L88.77 2.74Q88.56 2.73 88.14 2.73L88.14 2.73L88.14 2.73Q87.88 2.73 87.18 2.76L87.18 2.76L86.44 2.77L86.44 2.77Q86.51 2.37 86.10 4.66L86.10 4.66L85.82 6.26L85.82 6.26Q85.68 7.08 85.53 8.43L85.53 8.43L85.53 8.43Q85.39 9.58 85.28 10.04L85.28 10.04L85.28 10.04Q85.18 10.50 84.95 10.50L84.95 10.50L84.95 10.50Q84.63 10.50 84.19 10.27L84.19 10.27L84.19 10.27Q83.75 10.04 83.42 9.72L83.42 9.72L83.42 9.72Q83.09 9.39 83.09 9.18L83.09 9.18L83.09 9.18Q83.08 8.86 83.43 7.28L83.43 7.28L83.43 7.28Q83.69 5.95 83.80 5.31L83.80 5.31L83.80 5.31Q83.80 5.33 84.03 4.14L84.03 4.14L84.03 4.14Q84.22 3.08 84.27 2.84L84.27 2.84L82.08 3.11L82.08 3.11Q81.82 2.97 81.66 2.69L81.66 2.69L81.66 2.69Q81.49 2.42 81.49 2.10L81.49 2.10L81.49 2.10Q81.49 1.54 81.93 1.11L81.93 1.11L81.93 1.11Q82.73 0.99 83.92 0.96L83.92 0.96L83.92 0.96Q85.12 0.92 85.34 0.91L85.34 0.91L85.34 0.91Q86.81 0.87 87.49 0.83L87.49 0.83L87.49 0.83Q88.17 0.80 88.65 0.70L88.65 0.70Z"></path></g><defs data-v-fde0c5aa=""><!----></defs><g data-v-fde0c5aa="" id="6af836ec-ebef-47f0-94a5-8cfc39596837" stroke="none" fill="#0F5D25" transform="matrix(0.6288475394248962,0,0,0.6288475394248962,40,129.65080741931442)"><path d="M53.075 54.975c20.879 8.143 32.001 1.531 36.534 9.744H0s25.201-20.617 53.075-9.744zm-5.137-5.252v-7.754H63.07L51.92 28.673h8.686l-10.7-11.827h6.383L44.432 0 32.583 16.847h6.375L28.264 28.673h8.682L25.805 41.969h15.114v6.602c3.636.015 7.019 1.152 7.019 1.152zM19.33 43.334l10.425-12.443h-8.923l7.849-8.678-4.376-6.16-9.958 14.027h4.27l-9.25 13.254h9.963zm39.989-12.49l10.297 12.573h8.825l-6.188-8.647h4.888L66.757 10.405l-5.874 12.58 7.154 7.906-8.718-.047zM27.622 44.188H20.98v6.939s3.346-1.434 6.642-1.535v-5.404zm41.73 0H64.16l-.13 9.604c3.29 1.039 5.322 1.301 5.322 1.301V44.188z"></path></g><!----></svg>