<svg data-v-fde0c5aa="" xmlns="http://www.w3.org/2000/svg" viewBox="0 0 300 300" class="icon"><!----><defs data-v-fde0c5aa=""><!----></defs><rect data-v-fde0c5aa="" fill="#11CE3E" x="0" y="0" width="300px" height="300px" class="logo-background-square"></rect><!----><defs data-v-fde0c5aa=""><!----></defs><g data-v-fde0c5aa="" id="f0fcc76e-87d2-460c-8323-688bb87ae0be" fill="#0F5D25" stroke="none" transform="matrix(2.455110549926758,0,0,2.455110549926758,40,70.55384947303293)"><path d="M53.075 54.975c20.879 8.143 32.001 1.531 36.534 9.744H0s25.201-20.617 53.075-9.744zm-5.137-5.252v-7.754H63.07L51.92 28.673h8.686l-10.7-11.827h6.383L44.432 0 32.583 16.847h6.375L28.264 28.673h8.682L25.805 41.969h15.114v6.602c3.636.015 7.019 1.152 7.019 1.152zM19.33 43.334l10.425-12.443h-8.923l7.849-8.678-4.376-6.16-9.958 14.027h4.27l-9.25 13.254h9.963zm39.989-12.49l10.297 12.573h8.825l-6.188-8.647h4.888L66.757 10.405l-5.874 12.58 7.154 7.906-8.718-.047zM27.622 44.188H20.98v6.939s3.346-1.434 6.642-1.535v-5.404zm41.73 0H64.16l-.13 9.604c3.29 1.039 5.322 1.301 5.322 1.301V44.188z"></path></g><!----></svg>